<svg width="315" height="316" viewBox="0 0 315 316" fill="none" xmlns="http://www.w3.org/2000/svg">
<path d="M161.112 275.089C161.518 276.542 162.396 277.531 163.744 278.055C164.498 278.342 165.326 278.466 166.231 278.425C167.961 278.347 169.356 277.627 170.416 276.264C171.466 274.912 171.932 272.923 171.814 270.297C171.695 267.653 171.008 265.808 169.753 264.763C168.498 263.719 167.102 263.231 165.566 263.3C164.059 263.368 162.843 263.856 161.92 264.765C160.996 265.683 160.455 266.852 160.294 268.272L165.268 268.049L165.429 271.636L156.474 272.039L155.956 260.502L158.931 260.368L159.504 263.032C160.323 261.972 161.069 261.217 161.74 260.768C162.894 259.986 164.336 259.556 166.067 259.478C168.915 259.35 171.293 260.232 173.2 262.124C175.185 264.023 176.255 266.693 176.41 270.135C176.566 273.616 175.734 276.449 173.913 278.635C172.091 280.822 169.606 281.986 166.455 282.127C163.723 282.25 161.499 281.653 159.784 280.337C158.059 279.031 157.029 277.348 156.693 275.288L161.112 275.089Z" fill="#F14622"/>
<path d="M137.781 271.671C138.727 271.857 139.52 271.706 140.162 271.217C140.794 270.727 141.277 269.988 141.61 269.002L135.264 267.754C135.118 268.846 135.287 269.727 135.77 270.398C136.242 271.076 136.912 271.5 137.781 271.671ZM137.119 275.038C135.82 274.782 134.698 274.309 133.753 273.617C132.808 272.925 132.1 271.987 131.628 270.803C131.199 269.757 131.014 268.604 131.074 267.346C131.109 266.609 131.269 265.569 131.553 264.227L142.24 266.329C142.49 264.751 142.215 263.556 141.412 262.744C140.926 262.242 140.286 261.912 139.494 261.756C138.653 261.591 137.924 261.696 137.304 262.07C136.967 262.271 136.644 262.58 136.334 262.995L132.165 262.175C132.453 261.269 133.12 260.423 134.167 259.637C135.803 258.382 137.824 257.991 140.231 258.464C142.217 258.855 143.844 259.84 145.11 261.418C146.377 262.996 146.727 265.228 146.159 268.112C145.628 270.814 144.537 272.752 142.888 273.926C141.229 275.097 139.306 275.468 137.119 275.038Z" fill="#F14622"/>
<path d="M123.196 268.222L122.179 271.006L120.094 270.245L118.572 274.414L114.705 273.001L116.227 268.832L113.8 267.946L114.817 265.162L117.244 266.048L120.129 258.15C120.353 257.537 120.415 257.125 120.317 256.913C120.215 256.709 119.766 256.463 118.97 256.172C118.852 256.129 118.728 256.084 118.6 256.037C118.46 255.996 118.324 255.957 118.192 255.919L119.259 252.998L121.136 253.606C123.006 254.216 124.151 254.997 124.57 255.948C124.845 256.556 124.812 257.327 124.472 258.259L121.111 267.461L123.196 268.222Z" fill="#F14622"/>
<path d="M92.37 259.291L95.9401 261.54L93.8938 264.789L90.3237 262.54L92.37 259.291ZM96.9516 259.934L93.3815 257.685L101.862 244.22L105.432 246.469L96.9516 259.934Z" fill="#F14622"/>
<path d="M79.2504 247.673C78.016 246.586 77.2943 245.373 77.0853 244.035C76.8625 242.697 77.4105 241.28 78.7292 239.782L85.8117 231.741L89.0109 234.558L82.6135 241.822C82.0603 242.45 81.7197 243.006 81.5918 243.49C81.3582 244.374 81.6724 245.195 82.5342 245.954C83.5933 246.887 84.7157 247.078 85.9014 246.527C86.524 246.232 87.1602 245.716 87.8099 244.978L93.5029 238.514L96.6144 241.255L86.1162 253.175L83.1032 250.521L84.6374 248.779C83.6954 249.039 82.9264 249.147 82.3304 249.102C81.2631 249.018 80.2364 248.541 79.2504 247.673Z" fill="#F14622"/>
<path d="M63.2982 225.472L60.8129 227.086L59.604 225.225L55.8822 227.643L53.6393 224.191L57.3611 221.773L55.9533 219.606L58.4386 217.991L59.8464 220.158L66.8982 215.577C67.445 215.222 67.7427 214.93 67.7914 214.701C67.8318 214.477 67.6214 214.01 67.1601 213.3C67.0911 213.194 67.0196 213.084 66.9453 212.97C66.8576 212.853 66.7726 212.739 66.6902 212.631L69.2979 210.936L70.4328 212.549C71.561 214.161 72.0071 215.473 71.771 216.485C71.6256 217.137 71.1366 217.733 70.3041 218.274L62.0893 223.611L63.2982 225.472Z" fill="#F14622"/>
<path d="M61.2364 202.461C60.7512 201.345 59.9815 200.661 58.927 200.409C57.8726 200.156 56.6135 200.348 55.1497 200.984C53.6859 201.621 52.6913 202.409 52.1658 203.348C51.6315 204.292 51.6069 205.321 52.092 206.437C52.5771 207.553 53.3489 208.242 54.4071 208.503C55.4526 208.76 56.7073 208.57 58.1711 207.933C59.6349 207.297 60.634 206.507 61.1683 205.563C61.6988 204.611 61.7215 203.577 61.2364 202.461ZM53.409 196.981C55.5512 196.05 57.6532 195.868 59.7151 196.436C61.768 197.008 63.3398 198.548 64.4304 201.056C65.521 203.564 65.5754 205.764 64.5936 207.656C63.6029 209.551 62.0365 210.965 59.8943 211.896C57.7878 212.812 55.6947 212.99 53.615 212.429C51.5353 211.869 49.9501 210.335 48.8596 207.827C47.769 205.319 47.728 203.113 48.7365 201.21C49.7451 199.307 51.3026 197.897 53.409 196.981Z" fill="#F14622"/>
<path d="M41.5848 186.044L51.0017 184.22C51.8903 184.048 52.5388 183.813 52.9472 183.516C53.6682 182.99 53.9231 182.182 53.7122 181.092C53.442 179.697 52.6931 178.851 51.4657 178.553C50.8023 178.404 49.969 178.427 48.9657 178.621L40.4661 180.267L39.6639 176.125L55.287 173.099L56.0559 177.07L53.8486 177.497C53.9038 177.526 54.0656 177.594 54.3341 177.7C54.6026 177.807 54.848 177.948 55.0703 178.123C55.7676 178.652 56.2796 179.197 56.6064 179.759C56.9314 180.31 57.1716 180.988 57.327 181.79C57.7749 184.103 57.2452 185.821 55.738 186.946C54.9077 187.573 53.5991 188.059 51.8122 188.405L42.3954 190.229L41.5848 186.044Z" fill="#F14622"/>
<path d="M43.9377 154.721C43.3428 154.789 42.8043 154.98 42.3222 155.293C41.6722 155.75 41.3392 156.47 41.3231 157.452C41.3001 158.854 41.9802 159.824 43.3634 160.362C44.0985 160.647 45.0792 160.799 46.3054 160.819C47.4732 160.839 48.4145 160.718 49.1294 160.457C50.461 159.982 51.1381 159.059 51.1606 157.687C51.1765 156.714 50.9251 156.018 50.4063 155.601C49.8875 155.184 49.2103 154.924 48.3749 154.823L48.4445 150.575C49.708 150.693 50.8975 151.17 52.013 152.006C53.8114 153.34 54.6896 155.287 54.6477 157.846C54.6057 160.405 53.8158 162.276 52.2779 163.458C50.74 164.64 48.7594 165.211 46.3362 165.171C43.6016 165.126 41.4862 164.425 39.9899 163.067C38.4936 161.709 37.7647 159.857 37.8032 157.512C37.8359 155.517 38.3103 153.894 39.2263 152.643C40.1425 151.383 41.7363 150.655 44.0076 150.459L43.9377 154.721Z" fill="#F14622"/>
<path d="M40.5455 131.719C40.7676 130.761 41.1347 129.932 41.6469 129.232C42.1612 128.522 42.818 127.995 43.6172 127.65C44.2945 127.358 44.9523 127.236 45.5906 127.284C46.2194 127.33 47.2259 127.513 48.6102 127.834L57.7122 129.945L56.7524 134.084L47.3233 131.897C46.4889 131.703 45.7827 131.69 45.2048 131.855C44.3985 132.058 43.8754 132.676 43.6358 133.709C43.3873 134.781 43.5585 135.68 44.1493 136.406C44.7329 137.121 45.6884 137.632 47.0157 137.94L55.4067 139.886L54.47 143.925L33.5779 139.08L34.5146 135.041L41.9243 136.76C41.1599 135.963 40.6913 135.14 40.5186 134.29C40.3387 133.429 40.3476 132.572 40.5455 131.719Z" fill="#F14622"/>
<path d="M58.7368 109.402C57.6465 108.704 56.8852 107.836 56.4527 106.796C56.0202 105.757 55.8163 104.378 55.8409 102.661L55.8512 102.13C54.9252 102.277 54.063 102.297 53.2645 102.19C52.466 102.084 51.7348 101.818 51.0708 101.393C49.751 100.548 49.0055 99.4471 48.8344 98.0896C48.655 96.7267 49.0166 95.3403 49.919 93.9304C50.7428 92.6433 51.8034 91.8257 53.101 91.4775C54.3956 91.1158 55.6331 91.3128 56.8136 92.0683C57.8793 92.7504 58.5815 93.5581 58.9202 94.4913C59.2642 95.4164 59.4068 96.5477 59.348 97.8852L64.1654 97.3458C63.928 96.7778 63.6091 96.2559 63.2088 95.7801C62.8136 95.2961 62.34 94.8716 61.7878 94.5066L63.7789 91.3956C64.8459 92.1479 65.7888 93.1212 66.6076 94.3154C67.0709 94.9818 67.4949 95.854 67.8795 96.9322L73.9482 96.171L71.2251 100.426L68.8853 100.696C69.0626 101.665 69.1187 102.498 69.0534 103.196C68.9389 104.44 68.4908 105.673 67.709 106.894C66.5338 108.73 65.0745 109.819 63.3313 110.159C61.5882 110.499 60.0567 110.247 58.7368 109.402ZM53.0098 98.0926C53.3377 98.3025 53.7555 98.4081 54.2631 98.4094C54.5953 98.414 55.2221 98.3645 56.1435 98.2609C56.114 97.5487 56.0486 97.0099 55.9473 96.6446C55.767 95.9514 55.4186 95.4395 54.9021 95.109C54.525 94.8676 54.1102 94.7755 53.6577 94.8325C53.2052 94.8896 52.8189 95.1681 52.4988 95.6682C52.2995 95.9797 52.1993 96.3258 52.1983 96.7065C52.1901 97.279 52.4606 97.7411 53.0098 98.0926ZM60.8613 105.839C61.4597 106.222 62.1637 106.332 62.9734 106.168C63.7882 105.997 64.4396 105.529 64.9276 104.767C65.2949 104.193 65.51 103.568 65.573 102.892C65.633 102.202 65.6014 101.593 65.4781 101.063L59.2461 101.755C59.2667 103.004 59.4066 103.914 59.6656 104.485C59.9299 105.047 60.3285 105.498 60.8613 105.839Z" fill="#F14622"/>
<path d="M89.7734 79.3132L86.637 82.0474L72.4961 65.8262L75.6325 63.092L89.7734 79.3132Z" fill="#F14622"/>
<path d="M92.578 60.9065C91.7641 61.4223 91.2926 62.0783 91.1635 62.8746C91.0427 63.6657 91.2008 64.5334 91.6381 65.4777L97.1008 62.0153C96.4544 61.1229 95.7253 60.5998 94.9134 60.446C94.1045 60.2788 93.3261 60.4323 92.578 60.9065ZM90.7413 58.0086C91.8593 57.3 92.9992 56.8714 94.161 56.7227C95.3228 56.574 96.4821 56.7668 97.6389 57.3012C98.6705 57.7651 99.5978 58.4737 100.421 59.427C100.902 59.9862 101.502 60.8506 102.22 62.0201L93.0211 67.8507C93.925 69.1676 94.9475 69.8447 96.0888 69.8818C96.7875 69.9115 97.478 69.71 98.1603 69.2776C98.8837 68.819 99.3413 68.241 99.5329 67.5434C99.6388 67.1651 99.6613 66.7187 99.6002 66.2043L103.189 63.9299C103.604 64.7846 103.702 65.8575 103.483 67.1485C103.16 69.1851 101.963 70.8599 99.8918 72.173C98.1818 73.2567 96.3242 73.6621 94.3189 73.389C92.3136 73.1158 90.5242 71.738 88.9506 69.2553C87.476 66.9288 86.9331 64.7723 87.3219 62.7859C87.7189 60.7943 88.8587 59.2018 90.7413 58.0086Z" fill="#F14622"/>
<path d="M105.351 53.4567L104.169 50.7389L106.204 49.854L104.434 45.7839L108.21 44.1422L109.98 48.2123L112.349 47.1819L113.531 49.8997L111.161 50.9301L114.515 58.6419C114.775 59.24 115.014 59.5818 115.231 59.6676C115.445 59.7444 115.94 59.614 116.717 59.2764C116.833 59.2259 116.953 59.1735 117.078 59.1192C117.208 59.052 117.334 58.9868 117.455 58.9236L118.695 61.7753L116.917 62.6282C115.141 63.4746 113.773 63.6978 112.814 63.2978C112.195 63.0467 111.688 62.4659 111.292 61.5555L107.386 52.5718L105.351 53.4567Z" fill="#F14622"/>
<path d="M118.692 45.8516C119.512 45.279 119.986 44.5952 120.115 43.8003C120.173 43.3335 120.123 42.8954 119.964 42.4861L117.777 43.1701L116.631 39.5054L120.602 38.2637L121.521 41.2039C121.96 42.6066 121.962 43.8195 121.527 44.8426C121.102 45.8628 120.309 46.6868 119.149 47.3147L118.692 45.8516Z" fill="#F14622"/>
<path d="M134.372 51.4084C134.574 52.1254 134.844 52.615 135.181 52.8771C135.777 53.3447 136.762 53.4699 138.137 53.2529C138.945 53.1254 139.565 52.9043 139.998 52.5896C140.441 52.2734 140.624 51.8749 140.548 51.3942C140.476 50.9328 140.228 50.6122 139.805 50.4326C139.383 50.2529 137.89 50.0649 135.327 49.8685C133.478 49.707 132.136 49.3522 131.301 48.8042C130.467 48.2658 129.953 47.3813 129.759 46.1507C129.53 44.699 129.9 43.3645 130.871 42.1471C131.849 40.9186 133.372 40.1412 135.439 39.8149C137.401 39.5053 139.059 39.6476 140.414 40.2417C141.777 40.8246 142.701 42.0631 143.188 43.957L139.078 44.6058C138.937 44.0861 138.722 43.6915 138.433 43.4218C137.893 42.9355 137.08 42.7781 135.993 42.9496C135.099 43.0907 134.482 43.331 134.141 43.6705C133.81 44.0085 133.674 44.365 133.734 44.7399C133.808 45.211 134.064 45.5204 134.501 45.6682C134.94 45.8256 136.427 45.98 138.964 46.1314C140.659 46.2579 141.976 46.6461 142.917 47.2958C143.849 47.9567 144.408 48.8783 144.595 50.0609C144.84 51.6183 144.46 52.984 143.453 54.1578C142.454 55.3206 140.743 56.0931 138.321 56.4756C135.85 56.8656 133.941 56.6348 132.595 55.7832C131.256 54.9204 130.46 53.6814 130.205 52.0663L134.372 51.4084Z" fill="#F14622"/>
<path d="M183.402 40.8316C184.088 40.9746 184.737 41.249 185.348 41.6548C185.959 42.0606 186.467 42.6536 186.871 43.4337C187.196 44.0682 187.353 44.7967 187.34 45.6193C187.326 46.1632 187.214 46.9402 187.004 47.9502L184.929 57.763L180.755 56.8933L182.823 46.9744C182.946 46.3836 182.952 45.8778 182.841 45.457C182.63 44.6574 182.038 44.1563 181.066 43.9538C179.942 43.7194 179.068 44.0245 178.445 44.8689C178.122 45.3187 177.888 45.8914 177.743 46.5869L175.81 55.8626L171.708 55.0077L173.642 45.732C173.834 44.8078 173.879 44.1162 173.776 43.6572C173.59 42.833 172.996 42.3167 171.996 42.1081C170.833 41.8659 169.974 42.0794 169.417 42.7487C169.108 43.1318 168.865 43.7474 168.689 44.5954L166.735 53.9712L162.604 53.1103L165.845 37.5603L169.804 38.3854L169.33 40.6578C170.004 39.9532 170.601 39.476 171.12 39.2263C172.038 38.7814 173.126 38.6899 174.384 38.9521C175.575 39.2003 176.482 39.6629 177.107 40.3398C177.596 40.9489 177.914 41.6663 178.06 42.4921C178.784 41.6886 179.586 41.1549 180.467 40.8909C181.395 40.6369 182.373 40.6171 183.402 40.8316Z" fill="#F14622"/>
<path d="M206.175 57.8975C205.866 57.9279 205.565 57.9301 205.274 57.9039C204.995 57.8734 204.627 57.7929 204.17 57.6622L203.256 57.4009C202.403 57.1484 201.757 57.0373 201.317 57.0677C200.573 57.1199 200.022 57.5028 199.665 58.2166C199.347 58.8521 199.291 59.4005 199.495 59.8619C199.713 60.319 200.074 60.6738 200.579 60.9263C201.38 61.3269 202.233 61.4597 203.138 61.3249C204.052 61.1944 204.834 60.5133 205.483 59.2816L206.175 57.8975ZM204.784 55.0311C205.516 55.288 206.062 55.4252 206.423 55.4426C207.067 55.4819 207.509 55.2621 207.749 54.7834C208.04 54.2001 208.036 53.6974 207.736 53.2751C207.449 52.8485 206.913 52.4393 206.13 52.0475C205.251 51.6077 204.519 51.5141 203.936 51.7665C203.514 51.9579 203.122 52.3061 202.761 52.811L199.17 51.015C199.871 49.8094 200.731 48.9607 201.749 48.469C203.36 47.7075 205.362 47.9254 207.756 49.1227C209.314 49.902 210.544 50.9033 211.444 52.1265C212.345 53.3497 212.367 54.8188 211.509 56.5336L208.244 63.0623C208.017 63.5149 207.752 64.0677 207.447 64.7205C207.229 65.2211 207.138 65.5889 207.173 65.8239C207.208 66.059 207.318 66.294 207.506 66.5291L207.231 67.0775L203.184 65.053C203.214 64.7091 203.271 64.4001 203.353 64.1259C203.436 63.8517 203.545 63.547 203.68 63.2119C202.888 63.5121 202.059 63.6905 201.192 63.7469C200.161 63.8077 199.14 63.5856 198.13 63.0806C196.842 62.4362 195.959 61.5373 195.48 60.3838C195.014 59.2259 195.119 57.9723 195.794 56.6231C196.669 54.8734 197.977 53.9442 199.718 53.8356C200.671 53.7792 201.912 54.0187 203.44 54.5543L204.784 55.0311Z" fill="#F14622"/>
<path d="M226.06 53.131L229.289 55.638L222.18 64.7942L229.944 63.2446L234.015 66.4051L225.888 67.8026L224.474 79.0514L220.507 75.9714L221.669 68.2608L219.207 68.6227L216.136 72.5781L212.907 70.0712L226.06 53.131Z" fill="#F14622"/>
<path d="M242.787 78.9613C242.157 78.2327 241.438 77.8634 240.632 77.8534C239.832 77.8508 238.997 78.1355 238.127 78.7076L242.359 83.5983C243.147 82.8272 243.556 82.0287 243.588 81.203C243.634 80.3783 243.367 79.6311 242.787 78.9613ZM245.382 76.7164C246.248 77.7173 246.84 78.7813 247.159 79.9084C247.478 81.0354 247.459 82.2105 247.101 83.4336C246.795 84.5224 246.231 85.5443 245.41 86.4994C244.928 87.058 244.162 87.7789 243.112 88.6622L235.985 80.4262C234.816 81.5149 234.298 82.6263 234.43 83.7606C234.504 84.4559 234.805 85.109 235.334 85.7199C235.894 86.3676 236.533 86.7346 237.252 86.821C237.642 86.8699 238.086 86.8261 238.586 86.6897L241.366 89.9023C240.582 90.4391 239.535 90.6948 238.226 90.6692C236.164 90.6514 234.331 89.7152 232.726 87.8604C231.401 86.3295 230.726 84.5523 230.7 82.5286C230.673 80.505 231.771 78.5315 233.994 76.6081C236.077 74.8058 238.129 73.9501 240.152 74.0409C242.18 74.1391 243.923 75.0309 245.382 76.7164Z" fill="#F14622"/>
<path d="M254.055 108.753C253.41 109.126 253.002 109.508 252.831 109.899C252.526 110.593 252.648 111.578 253.198 112.857C253.521 113.608 253.889 114.154 254.301 114.496C254.717 114.847 255.148 114.926 255.595 114.734C256.024 114.549 256.274 114.23 256.343 113.776C256.413 113.322 256.226 111.829 255.783 109.297C255.482 107.466 255.494 106.078 255.819 105.133C256.134 104.192 256.864 103.475 258.009 102.983C259.359 102.402 260.743 102.431 262.163 103.071C263.595 103.715 264.725 104.999 265.552 106.921C266.337 108.745 266.609 110.387 266.368 111.846C266.14 113.311 265.169 114.513 263.454 115.453L261.809 111.631C262.278 111.366 262.607 111.06 262.797 110.713C263.135 110.07 263.086 109.243 262.652 108.233C262.294 107.401 261.908 106.862 261.495 106.616C261.086 106.379 260.707 106.336 260.358 106.486C259.92 106.674 259.684 106.999 259.648 107.459C259.604 107.923 259.823 109.402 260.303 111.898C260.599 113.571 260.549 114.944 260.152 116.015C259.742 117.082 258.987 117.852 257.887 118.325C256.439 118.948 255.022 118.917 253.635 118.231C252.262 117.551 251.09 116.084 250.121 113.831C249.132 111.534 248.884 109.627 249.376 108.112C249.881 106.602 250.885 105.524 252.387 104.877L254.055 108.753Z" fill="#F14622"/>
<path d="M260.394 132.909C260.635 134.101 261.244 134.932 262.222 135.4C263.2 135.868 264.472 135.944 266.036 135.628C267.601 135.313 268.739 134.751 269.45 133.942C270.17 133.131 270.41 132.13 270.169 130.937C269.928 129.745 269.318 128.91 268.338 128.432C267.37 127.962 266.103 127.885 264.538 128.201C262.974 128.516 261.831 129.079 261.111 129.89C260.393 130.71 260.154 131.716 260.394 132.909ZM266.9 139.907C264.61 140.369 262.516 140.106 260.619 139.119C258.732 138.129 257.518 136.294 256.977 133.613C256.436 130.932 256.844 128.77 258.2 127.126C259.566 125.48 261.394 124.426 263.684 123.965C265.936 123.51 268.02 123.775 269.936 124.759C271.852 125.743 273.08 127.575 273.621 130.256C274.162 132.937 273.739 135.102 272.354 136.752C270.969 138.401 269.151 139.453 266.9 139.907Z" fill="#F14622"/>
<path d="M276.104 167.578C276.055 168.278 275.871 168.957 275.551 169.618C275.232 170.279 274.713 170.862 273.995 171.368C273.41 171.776 272.71 172.029 271.893 172.129C271.352 172.188 270.567 172.182 269.538 172.11L259.534 171.382L259.832 167.13L269.939 167.836C270.541 167.878 271.043 167.815 271.445 167.648C272.208 167.331 272.625 166.677 272.694 165.687C272.774 164.541 272.354 163.716 271.433 163.213C270.943 162.954 270.344 162.8 269.635 162.751L260.183 162.091L260.475 157.911L269.927 158.571C270.869 158.637 271.56 158.587 272.001 158.423C272.793 158.127 273.224 157.469 273.295 156.45C273.378 155.265 273.05 154.443 272.311 153.981C271.89 153.727 271.247 153.57 270.383 153.51L260.829 152.843L261.123 148.634L276.969 149.74L276.687 153.775L274.371 153.613C275.161 154.185 275.714 154.712 276.032 155.192C276.597 156.042 276.835 157.107 276.745 158.389C276.661 159.602 276.325 160.564 275.739 161.275C275.202 161.842 274.534 162.254 273.735 162.51C274.63 163.119 275.267 163.842 275.648 164.678C276.025 165.563 276.177 166.53 276.104 167.578Z" fill="#F14622"/>
<path d="M268.003 191.645C268.314 190.733 268.27 189.926 267.871 189.225C267.469 188.533 266.802 187.956 265.869 187.495L263.785 193.617C264.848 193.907 265.744 193.858 266.473 193.468C267.208 193.091 267.718 192.483 268.003 191.645ZM271.251 192.75C270.825 194.004 270.206 195.052 269.394 195.897C268.582 196.741 267.558 197.318 266.322 197.627C265.228 197.913 264.061 197.942 262.822 197.716C262.096 197.582 261.087 197.285 259.794 196.824L263.303 186.514C261.774 186.055 260.552 186.169 259.64 186.855C259.077 187.27 258.666 187.86 258.406 188.625C258.13 189.436 258.136 190.173 258.424 190.837C258.579 191.198 258.841 191.559 259.211 191.922L257.842 195.944C256.983 195.538 256.234 194.764 255.595 193.621C254.569 191.833 254.451 189.777 255.241 187.455C255.893 185.539 257.086 184.058 258.82 183.014C260.553 181.969 262.811 181.92 265.593 182.867C268.201 183.755 269.976 185.094 270.919 186.885C271.859 188.685 271.969 190.641 271.251 192.75Z" fill="#F14622"/>
<path d="M262.831 205.288L265.457 206.662L264.428 208.628L268.361 210.685L266.453 214.333L262.52 212.276L261.322 214.566L258.696 213.192L259.894 210.902L252.443 207.004C251.865 206.702 251.464 206.585 251.241 206.655C251.026 206.73 250.723 207.142 250.33 207.892C250.272 208.004 250.211 208.121 250.148 208.242C250.088 208.375 250.032 208.505 249.977 208.63L247.222 207.189L248.071 205.409C248.922 203.635 249.846 202.603 250.844 202.312C251.483 202.119 252.243 202.253 253.122 202.713L261.802 207.254L262.831 205.288Z" fill="#F14622"/>
<path d="M253.237 228.183C252.643 228.966 251.969 229.572 251.215 230.002C250.455 230.439 249.64 230.652 248.77 230.639C248.033 230.629 247.382 230.471 246.82 230.166C246.265 229.867 245.421 229.288 244.289 228.429L236.847 222.78L239.416 219.396L247.125 225.248C247.808 225.766 248.446 226.067 249.041 226.153C249.86 226.297 250.59 225.947 251.232 225.102C251.897 224.226 252.108 223.336 251.866 222.431C251.626 221.54 250.963 220.683 249.878 219.859L243.017 214.651L245.524 211.349L262.606 224.315L260.1 227.618L254.041 223.019C254.413 224.059 254.504 225.002 254.314 225.847C254.126 226.707 253.767 227.485 253.237 228.183Z" fill="#F14622"/>
<path d="M240.253 245.093L243.308 242.183L245.957 244.963L242.901 247.873L240.253 245.093ZM241.999 240.808L238.944 243.718L227.969 232.195L231.024 229.285L241.999 240.808Z" fill="#F14622"/>
<path d="M226.16 254.724C224.804 255.656 223.452 256.06 222.103 255.936C220.752 255.825 219.511 254.948 218.38 253.304L212.31 244.473L215.823 242.058L221.306 250.035C221.78 250.725 222.237 251.19 222.675 251.433C223.475 251.875 224.348 251.771 225.294 251.12C226.457 250.32 226.916 249.279 226.671 247.994C226.537 247.319 226.192 246.576 225.635 245.766L220.756 238.667L224.172 236.319L233.171 249.408L229.862 251.683L228.547 249.77C228.569 250.747 228.486 251.519 228.297 252.086C227.955 253.1 227.242 253.98 226.16 254.724Z" fill="#F14622"/>
<path d="M200.511 254.631C199.608 254.995 198.982 255.641 198.632 256.569C198.286 257.507 198.414 258.72 199.015 260.209C199.579 261.608 200.307 262.553 201.197 263.044C202.079 263.538 203.016 263.585 204.009 263.185C205.363 262.638 206.04 261.625 206.041 260.145C206.039 259.359 205.838 258.469 205.437 257.476C205.091 256.619 204.639 255.914 204.081 255.363C203.055 254.329 201.865 254.085 200.511 254.631ZM206.29 266.184C205.55 266.483 204.859 266.631 204.217 266.627C203.122 266.618 202.076 266.211 201.08 265.406L201.937 267.531L198.187 269.044L192.539 255.045C191.77 253.14 191.512 251.576 191.763 250.352C192.194 248.247 193.971 246.564 197.094 245.304C198.981 244.543 200.669 244.292 202.159 244.552C203.649 244.811 204.754 245.651 205.474 247.071L201.277 248.765C200.987 248.357 200.679 248.103 200.356 248.003C199.798 247.818 199.028 247.924 198.044 248.321C196.654 248.882 195.912 249.722 195.818 250.841C195.751 251.561 196.002 252.624 196.57 254.033L196.952 254.98C197.067 254.199 197.273 253.565 197.57 253.078C198.101 252.182 198.98 251.486 200.207 250.991C202.103 250.226 203.887 250.278 205.559 251.146C207.227 252.026 208.519 253.604 209.437 255.879C210.322 258.072 210.518 260.134 210.027 262.063C209.539 264.002 208.294 265.376 206.29 266.184Z" fill="#F14622"/>
</svg>
