<svg width="439" height="43" viewBox="0 0 439 43" fill="none" xmlns="http://www.w3.org/2000/svg">
<g clip-path="url(#clip0_108_108)">
<path d="M37.7581 18.7809C37.7581 23.8008 35.9505 28.2013 32.9107 31.5098L37.7581 37.9258L31.1032 42.9946L25.9953 36.2689C23.8295 37.0946 21.4031 37.5618 18.879 37.5618C8.2019 37.5673 0 29.4454 0 18.7809C0 8.11649 8.2019 0 18.879 0C29.5562 0 37.7581 8.12192 37.7581 18.7809ZM8.87499 18.7809C8.87499 24.833 13.1035 29.1846 18.8845 29.1846C24.6654 29.1846 28.8939 24.8384 28.8939 18.7809C28.8939 12.7234 24.6654 8.37726 18.8845 8.37726C13.1035 8.37726 8.87499 12.7234 8.87499 18.7809Z" fill="#091638"/>
<path d="M76.9654 0L76.9111 21.8124C76.9111 32.2975 70.4137 37.5673 61.745 37.5673C53.0762 37.5673 46.5788 32.2975 46.5788 21.8124L46.5245 0H55.4483V21.2854C55.4483 27.0821 57.9778 29.0325 61.7395 29.0325C65.5012 29.0325 68.0307 27.0821 68.0307 21.2854V0H76.9546H76.9654Z" fill="#091638"/>
<path d="M85.9327 0.0706177H94.6992V37.6379H85.9327V0.0706177Z" fill="#091638"/>
<path d="M126.942 23.7193L126.275 15.8092V0.146698H135.041V37.5673H125.086L111.521 13.9947L112.243 21.9048V37.5673H103.476V0.146698H113.432L126.948 23.7193H126.942Z" fill="#091638"/>
<path d="M198.273 0.146699C205.156 0.146699 211.979 3.61821 214.916 10.3982L198.17 18.8842C198.382 19.0417 199.397 19.4166 214.813 27.2125C211.344 33.9382 205.476 37.5673 199.185 37.5673C189.583 37.5673 179.986 30.1462 179.986 18.6669C179.986 8.68694 188.307 0.141266 198.279 0.141266L198.273 0.146699Z" fill="#E1523D"/>
<path d="M320.699 37.1272H292.663C291.176 37.1272 290.177 35.5463 290.785 34.1447L304.936 1.40164C305.663 -0.282504 307.987 -0.271639 308.703 1.41794L322.588 34.161C323.18 35.5626 322.187 37.1272 320.705 37.1272H320.699Z" fill="#8DD2E5"/>
<path d="M404.689 0.630188H374.872C373.054 0.630188 371.87 2.68919 372.695 4.42766L387.748 36.1819C388.654 38.0997 391.211 38.0888 392.106 36.1656L406.871 4.41136C407.68 2.67289 406.502 0.630188 404.689 0.630188Z" fill="#FAE053"/>
<path d="M251.094 36.7687C251.094 36.8936 250.921 36.9805 250.568 37.0294C249.9 37.1327 248.228 37.187 245.552 37.187C243.256 37.187 241.698 37.1327 240.879 37.0294C240.493 36.9751 240.276 36.9316 240.222 36.8991C240.119 36.8447 239.994 36.6709 239.853 36.3721C239.592 35.6876 239.207 34.6716 238.697 33.3243C238.013 31.575 236.943 28.989 235.494 25.5718C235.179 24.8873 234.452 24.5124 233.312 24.4418C233.838 24.4744 232.937 24.4961 230.609 24.4961C230.348 24.4961 230.212 24.9416 230.212 25.838C230.212 27.0278 230.321 28.8097 230.538 31.173C230.755 33.5362 230.869 35.3181 230.869 36.5079C230.869 36.8067 230.788 36.9805 230.63 37.0349C230.386 37.0512 230.142 37.0675 229.898 37.0892C228.866 37.1598 227.254 37.1924 225.067 37.1924C222.564 37.1924 221.055 37.1381 220.55 37.0349C220.04 36.9316 219.79 36.66 219.79 36.22C219.79 34.2913 219.883 31.3848 220.067 27.495C220.252 23.6052 220.344 20.6878 220.344 18.7429C220.344 11.3327 220.176 5.54681 219.845 1.39621L219.818 1.02678C219.801 0.727985 220.078 0.526974 220.643 0.423752C221.213 0.320531 223.883 0.211876 228.665 0.108654C231.906 0.0325963 234.49 0 236.411 0C240.401 0 243.658 0.901832 246.182 2.7055C249.037 4.73733 250.465 7.671 250.465 11.5119C250.465 14.0708 250.096 16.1135 249.363 17.6346C248.63 19.1558 247.273 20.6389 245.292 22.0786C244.89 22.3611 244.689 22.6219 244.689 22.8663C244.689 22.85 245.759 25.0503 247.892 29.4617C250.025 33.8785 251.094 36.3123 251.094 36.7687ZM240.064 13.1961C240.064 11.061 239.364 9.57789 237.964 8.75212C236.878 8.12192 235.179 7.80682 232.867 7.80682C231.206 7.80682 230.321 8.06216 230.212 8.5674C230.109 9.165 230.055 10.8817 230.055 13.7176C230.055 14.1196 230.066 14.7172 230.082 15.505C230.098 16.2927 230.109 16.8795 230.109 17.2652C230.109 17.3521 230.392 17.439 230.951 17.526C232.02 17.6835 233.138 17.765 234.311 17.765C238.143 17.765 240.059 16.2384 240.059 13.1907L240.064 13.1961Z" fill="#091638"/>
<path d="M285.178 29.5812C285.346 30.2766 285.514 31.5859 285.688 33.509C285.883 35.6006 285.916 36.8665 285.78 37.3065C285.661 37.6596 285.433 37.8769 285.091 37.9584C284.944 37.991 284.7 38.0291 284.347 38.0617C283.131 38.1812 279.668 38.9309 273.969 40.3054C272.726 40.6042 270.875 41.0442 268.416 41.6201C265.957 42.196 264.116 42.6306 262.89 42.9294C262.358 43.0598 262.032 42.8859 261.924 42.4187C261.489 40.6096 260.936 37.8661 260.263 34.1881C259.589 30.5102 259.036 27.7667 258.602 25.9576C258.156 24.1159 257.234 20.7041 255.833 15.7223C255.475 14.4402 254.921 12.5333 254.172 9.99078L254.064 9.65939C253.944 9.2954 254.102 9.06179 254.536 8.95857C255.73 8.67063 257.532 8.26861 259.948 7.75793C262.363 7.24726 264.165 6.84524 265.36 6.5573C266.554 6.26937 268.307 5.81302 270.663 5.17739C273.019 4.54176 274.788 4.07998 275.966 3.79748C276.807 3.59647 277.367 3.79748 277.649 4.39508C277.817 4.74821 278.213 5.84562 278.838 7.68731C279.462 9.529 279.82 10.6536 279.918 11.0556C279.999 11.3924 279.88 11.6043 279.554 11.6804C279.456 11.7021 279.288 11.7347 279.038 11.7781C274.658 12.4572 270.755 13.2124 267.33 14.0327C266.472 14.2392 266 14.5651 265.902 15.0161C265.87 15.2279 265.978 15.8636 266.228 16.9121C266.478 17.9606 266.831 18.6994 267.238 18.9765C267.585 19.2155 268.15 19.2427 268.92 19.058C269.083 19.02 269.393 18.933 269.854 18.7918C270.315 18.656 270.701 18.5473 271.01 18.4767C273.046 17.9878 275.092 17.4336 277.144 16.8197C277.318 16.76 277.752 16.6133 278.447 16.3797C278.979 16.1841 279.408 16.0428 279.733 15.9668C280.119 15.8744 280.357 16.0102 280.45 16.3851C280.368 16.0483 280.52 17.3195 280.906 20.1989C281.085 21.5245 281.335 22.8337 281.644 24.1267C281.72 24.4527 281.525 24.67 281.058 24.7787L278.821 25.0612C277.877 25.1861 275.765 25.6425 272.487 26.4356L269.919 27.055C269.257 27.2125 268.91 27.4679 268.872 27.821C268.872 27.9079 268.986 28.4077 269.208 29.3313C269.501 30.5591 269.773 31.3305 270.022 31.651C270.446 32.1998 271.564 32.3138 273.388 31.9933C273.355 31.9987 274.533 31.7162 276.921 31.1404C277.779 30.9339 279.033 30.5536 280.683 29.9886C282.333 29.4236 283.576 29.0488 284.418 28.8423C284.771 28.7554 285.02 29.0053 285.161 29.5866L285.178 29.5812Z" fill="#091638"/>
<path d="M348.367 8.37725C348.367 8.72494 348.177 8.89879 347.791 8.89879C347.129 8.89879 344.518 8.7684 339.948 8.50763C339.844 12.9081 339.79 15.9722 339.79 17.7107C339.79 19.7642 339.871 22.85 340.04 26.968C340.203 31.086 340.289 34.1718 340.289 36.2254C340.289 36.5568 340.213 36.7632 340.056 36.8501C340.002 36.8827 339.763 36.9262 339.329 36.9805C338.286 37.1218 336.756 37.187 334.742 37.187C332.5 37.187 330.931 37.1163 330.025 36.9805C329.536 36.8936 329.298 36.622 329.298 36.1711C329.298 34.1175 329.384 31.0426 329.558 26.9409C329.732 22.8392 329.819 19.7642 329.819 17.7107C329.819 16.3525 329.748 13.3319 329.612 8.63802C326.138 8.98571 323.37 9.15956 321.302 9.15956C321.025 9.15956 320.884 9.07264 320.884 8.89879C320.884 8.67062 321.003 8.00239 321.248 6.88868C321.524 5.67175 321.682 4.9329 321.714 4.67213C321.769 3.85722 321.828 3.03688 321.899 2.22197C322.018 0.918121 322.23 0.266194 322.523 0.266194C322.556 0.266194 322.681 0.277059 322.887 0.293358C325.699 0.65735 329.862 0.842062 335.366 0.842062C336.929 0.842062 339.812 0.679081 344.019 0.347685C346.277 0.173838 347.417 0.0869141 347.433 0.0869141C347.78 0.0869141 347.981 0.108645 348.03 0.152107C348.084 0.195569 348.117 0.363983 348.133 0.662783C348.133 1.13 348.117 1.78192 348.079 2.61856C348.046 3.54213 348.025 4.19405 348.025 4.57434C348.025 5.00896 348.079 5.65002 348.193 6.49209C348.307 7.33417 348.361 7.96436 348.361 8.38268L348.367 8.37725Z" fill="#091638"/>
<path d="M366.013 17.5042C366.013 19.5687 366.062 22.6762 366.165 26.8268C366.268 30.9774 366.317 34.0795 366.317 36.1493C366.317 36.497 366.241 36.7198 366.095 36.8067C366.062 36.823 365.845 36.861 365.449 36.9099C364.369 37.0512 362.925 37.1218 361.112 37.1218C358.685 37.1218 357.144 37.0512 356.476 36.9099C355.993 36.8067 355.754 36.5351 355.754 36.095C355.754 36.3775 355.83 34.8346 355.977 31.4718C356.275 24.3821 356.427 19.7262 356.427 17.5042C356.427 15.6299 356.368 12.8212 356.254 9.07807C356.14 5.33493 356.08 2.52621 356.08 0.651918C356.08 0.266195 356.27 0.0760498 356.655 0.0760498C357.171 0.0760498 357.947 0.103213 358.984 0.152108C360.021 0.201002 360.797 0.228166 361.313 0.228166C361.828 0.228166 362.588 0.201002 363.592 0.152108C364.597 0.0977807 365.357 0.0760498 365.872 0.0760498C366.355 0.0760498 366.594 0.266195 366.594 0.651918C366.594 2.52621 366.496 5.33493 366.306 9.07807C366.117 12.8266 366.019 15.6354 366.019 17.5042H366.013Z" fill="#091638"/>
<path d="M439 28.9075C439 29.6681 438.848 31.0589 438.549 33.0907C438.229 35.2964 437.947 36.6111 437.697 37.0349C437.486 37.3717 437.192 37.5401 436.818 37.5401C436.66 37.5401 436.395 37.513 436.02 37.4586C434.723 37.2793 430.945 37.1924 424.675 37.1924C423.307 37.1924 421.277 37.1816 418.579 37.1653C415.882 37.149 413.857 37.1381 412.511 37.1381C411.924 37.1381 411.631 36.8828 411.631 36.3721C411.631 34.3946 411.74 31.4283 411.962 27.4624C412.185 23.502 412.294 20.5303 412.294 18.5527C412.294 16.5752 412.185 12.7886 411.973 7.30158C411.919 5.88907 411.821 3.78118 411.68 0.972458L411.653 0.603033C411.615 0.195579 411.838 -0.00543213 412.321 -0.00543213C413.634 -0.00543213 415.61 0.0325969 418.243 0.0977896C420.881 0.168415 422.851 0.201011 424.165 0.201011C425.479 0.201011 427.411 0.168415 430.022 0.0977896C432.633 0.0271642 434.582 -0.00543213 435.879 -0.00543213C436.802 -0.00543213 437.334 0.336829 437.475 1.02679C437.562 1.43424 437.703 2.66203 437.887 4.72104C438.072 6.78004 438.164 8.02413 438.164 8.46961C438.164 8.83904 437.985 9.02375 437.632 9.02375C437.524 9.02375 437.339 9.01289 437.073 8.99659C432.351 8.61087 428.106 8.41529 424.344 8.41529C423.405 8.41529 422.824 8.63803 422.612 9.07808C422.526 9.28996 422.477 9.96905 422.477 11.1154C422.477 12.2617 422.656 13.1092 423.009 13.5003C423.313 13.8371 423.888 14.0056 424.74 14.0056C424.919 14.0056 425.261 13.9947 425.777 13.9675C426.293 13.9404 426.716 13.9295 427.053 13.9295C429.289 13.9295 431.553 13.8697 433.843 13.7448C434.039 13.7285 434.527 13.685 435.309 13.6144C435.911 13.5438 436.389 13.5112 436.747 13.5112C437.171 13.5112 437.388 13.7122 437.388 14.1196C437.388 13.7502 437.23 15.0975 436.91 18.167C436.769 19.5795 436.698 20.992 436.698 22.4045C436.698 22.7577 436.443 22.9315 435.928 22.9315L433.534 22.6653C432.524 22.5621 430.212 22.5078 426.613 22.5078H423.79C423.063 22.5078 422.634 22.687 422.515 23.0347C422.498 23.1217 422.488 23.6704 422.488 24.6754C422.488 26.0173 422.574 26.8811 422.754 27.2723C423.058 27.9405 424.192 28.3425 426.162 28.462C426.124 28.462 427.422 28.462 430.049 28.462C430.988 28.462 432.389 28.3805 434.245 28.2121C436.101 28.0437 437.491 27.9622 438.414 27.9622C438.805 27.9622 439 28.2773 439 28.913V28.9075Z" fill="#091638"/>
<path d="M158.648 7.11687L161.601 13.0983C161.829 13.5546 162.263 13.8752 162.773 13.9512L169.369 14.9128C170.644 15.0975 171.149 16.6676 170.232 17.564L165.46 22.2198C165.097 22.5784 164.928 23.0891 165.015 23.5943L166.144 30.1679C166.361 31.4392 165.031 32.4062 163.892 31.8086L157.991 28.7011C157.541 28.462 156.998 28.462 156.547 28.7011L150.647 31.8086C149.507 32.4062 148.177 31.4392 148.394 30.1679L149.523 23.5943C149.61 23.0891 149.442 22.573 149.078 22.2198L144.307 17.564C143.384 16.6622 143.894 15.0975 145.17 14.9128L151.765 13.9512C152.27 13.8752 152.71 13.5601 152.938 13.0983L155.89 7.11687C156.46 5.9597 158.105 5.9597 158.675 7.11687H158.648Z" fill="#FAE053"/>
</g>
<defs>
<clipPath id="clip0_108_108">
<rect width="439" height="43" fill="white"/>
</clipPath>
</defs>
</svg>
