<svg width="216" height="80" viewBox="0 0 216 80" fill="none" xmlns="http://www.w3.org/2000/svg">
<g clip-path="url(#clip0_109_153)">
<path d="M69.56 34.57C69.56 43.81 66.23 51.91 60.63 58L69.56 69.81L57.3 79.14L47.89 66.76C43.9 68.28 39.43 69.14 34.78 69.14C15.11 69.15 0 54.2 0 34.57C0 14.94 15.11 0 34.78 0C54.45 0 69.56 14.95 69.56 34.57ZM16.35 34.57C16.35 45.71 24.14 53.72 34.79 53.72C45.44 53.72 53.23 45.72 53.23 34.57C53.23 23.42 45.44 15.42 34.79 15.42C24.14 15.42 16.35 23.42 16.35 34.57Z" fill="white"/>
<path d="M185.1 0.130005C197.78 0.130005 210.35 6.52001 215.76 19L184.91 34.62C185.3 34.91 187.17 35.6 215.57 49.95C209.18 62.33 198.37 69.01 186.78 69.01C169.09 69.01 151.41 55.35 151.41 34.22C151.4 15.86 166.73 0.130005 185.1 0.130005Z" fill="white"/>
<path d="M113.04 12.5999L118.48 23.6099C118.9 24.4499 119.7 25.0399 120.64 25.1799L132.79 26.9499C135.14 27.2899 136.07 30.1799 134.38 31.8299L125.59 40.3999C124.92 41.0599 124.61 41.9999 124.77 42.9299L126.85 55.0299C127.25 57.3699 124.8 59.1499 122.7 58.0499L111.83 52.3299C111 51.8899 110 51.8899 109.17 52.3299L98.3 58.0499C96.2 59.1499 93.75 57.3699 94.15 55.0299L96.23 42.9299C96.39 41.9999 96.08 41.0499 95.41 40.3999L86.62 31.8299C84.92 30.1699 85.86 27.2899 88.21 26.9499L100.36 25.1799C101.29 25.0399 102.1 24.4599 102.52 23.6099L107.96 12.5999C109.01 10.4699 112.04 10.4699 113.09 12.5999H113.04Z" fill="white"/>
</g>
<defs>
<clipPath id="clip0_109_153">
<rect width="215.76" height="79.15" fill="white"/>
</clipPath>
</defs>
</svg>
