<svg width="517" height="49" viewBox="0 0 517 49" fill="none" xmlns="http://www.w3.org/2000/svg">
<path d="M27.2976 30.6765H10.5704V47.8139H0V4.34671H10.5704V20.6136H27.2976V4.34671H37.8679V47.8139H27.2976V30.6765Z" fill="black"/>
<path d="M44.7686 30.7375C44.7686 20.6137 52.169 12.8517 62.8005 12.8517C74.1148 12.8517 81.5151 21.7336 80.4603 32.9719H55.5278C56.0274 38.25 59.3806 40.4844 63.0503 40.4844C65.9094 40.4844 68.2744 39.1205 69.0794 36.6366H79.9607C77.5957 45.0806 70.4451 48.6234 63.0503 48.6234C52.108 48.6234 44.7686 40.8614 44.7686 30.7375ZM69.4569 26.5793C68.7741 23.286 66.5367 20.9907 62.7394 20.9907C58.9421 20.9907 56.7103 23.286 55.8387 26.5793H69.4569Z" fill="black"/>
<path d="M85.6178 0H96.1882V47.8139H85.6178V0Z" fill="black"/>
<path d="M102.473 0H113.043V47.8139H102.473V0Z" fill="black"/>
<path d="M154.514 30.7375C154.514 41.0443 146.62 48.6234 136.604 48.6234C126.589 48.6234 118.695 40.9834 118.695 30.7375C118.695 20.4917 126.717 12.8517 136.604 12.8517C146.492 12.8517 154.514 20.4251 154.514 30.7375ZM129.393 30.7375C129.393 35.5167 132.563 38.5605 136.604 38.5605C140.646 38.5605 143.816 35.5167 143.816 30.7375C143.816 25.9583 140.707 22.9145 136.604 22.9145C132.502 22.9145 129.393 26.0193 129.393 30.7375Z" fill="black"/>
<path d="M174.222 42.5357C174.222 46.073 171.485 48.6234 167.816 48.6234C164.146 48.6234 161.409 46.0785 161.409 42.5357C161.409 38.9929 164.146 36.4481 167.816 36.4481C171.485 36.4481 174.222 38.9929 174.222 42.5357ZM173.101 17.6364L172.418 32.5394H163.213L162.531 17.6364V4.34671H173.101V17.6364Z" fill="black"/>
<path d="M201.703 4.34671H212.274V47.8139H201.703V4.34671Z" fill="black"/>
<path d="M227.757 25.5813H221.04L226.075 15.2135C223.838 14.4041 222.405 12.4192 222.405 9.74686C222.405 6.0211 225.142 3.53726 228.745 3.53726C231.355 3.53726 235.213 4.84017 235.213 10.1793C235.213 11.7317 234.902 14.2765 227.752 25.5813H227.757Z" fill="black"/>
<path d="M296.587 26.4518V47.8139H286.016V28.8136C286.016 25.0879 284.895 22.9145 280.92 22.9145C276.945 22.9145 274.952 24.9659 274.952 29.6841V47.8139H264.382V28.8136C264.382 25.0879 263.26 22.9145 259.285 22.9145C255.31 22.9145 253.317 24.9659 253.317 29.6841V47.8139H242.747V13.6611H253.317V17.5089C255.804 14.465 258.974 12.8517 263.016 12.8517C267.679 12.8517 271.288 15.025 273.275 18.8118C275.885 15.025 279.865 12.8517 284.59 12.8517C291.929 12.8517 296.592 18.1298 296.592 26.4518H296.587Z" fill="black"/>
<path d="M350.527 14.5537C350.527 14.9585 350.305 15.1581 349.861 15.1581C349.089 15.1581 346.047 15.0084 340.722 14.7034C340.6 19.8153 340.539 23.3858 340.539 25.4039C340.539 27.7879 340.634 31.3751 340.828 36.1654C341.022 40.9556 341.117 44.5428 341.117 46.9268C341.117 47.3094 341.028 47.5533 340.845 47.6531C340.784 47.6919 340.5 47.7418 339.995 47.8028C338.779 47.9636 336.997 48.0468 334.655 48.0468C332.045 48.0468 330.213 47.9636 329.158 47.8028C328.592 47.703 328.309 47.387 328.309 46.8603C328.309 44.4762 328.409 40.9002 328.614 36.1265C328.814 31.3585 328.92 27.7768 328.92 25.3928C328.92 23.8182 328.836 20.2976 328.675 14.842C324.628 15.2468 321.397 15.4464 318.988 15.4464C318.666 15.4464 318.499 15.3466 318.499 15.1414C318.499 14.8808 318.638 14.0991 318.927 12.8073C319.249 11.3935 319.432 10.5341 319.471 10.2292C319.532 9.28112 319.604 8.3275 319.682 7.37943C319.82 5.86584 320.065 5.10627 320.409 5.10627C320.448 5.10627 320.592 5.11736 320.836 5.13399C324.117 5.5609 328.964 5.77159 335.382 5.77159C337.203 5.77159 340.561 5.57754 345.464 5.19498C348.095 4.99539 349.422 4.89005 349.439 4.89005C349.844 4.89005 350.077 4.91777 350.138 4.96767C350.199 5.01756 350.238 5.21716 350.26 5.5609C350.26 6.10424 350.238 6.86381 350.199 7.83406C350.16 8.90411 350.138 9.66367 350.138 10.1072C350.138 10.6117 350.205 11.3547 350.338 12.336C350.471 13.3174 350.538 14.0492 350.538 14.5316L350.527 14.5537Z" fill="#091638"/>
<path d="M370.146 25.4094C370.146 27.7935 370.207 31.3806 370.33 36.1709C370.452 40.9612 370.513 44.5483 370.513 46.9324C370.513 47.3371 370.424 47.5921 370.241 47.6919C370.202 47.7141 369.935 47.7529 369.452 47.8139C368.137 47.9747 366.377 48.0578 364.167 48.0578C361.214 48.0578 359.332 47.9747 358.521 47.8139C357.933 47.6919 357.638 47.3814 357.638 46.8714C357.638 47.1929 357.727 45.4188 357.91 41.5378C358.277 33.3489 358.455 27.9764 358.455 25.4094C358.455 23.2472 358.382 20.0038 358.244 15.6792C358.099 11.3547 358.033 8.11128 358.033 5.94901C358.033 5.50546 358.266 5.28369 358.732 5.28369C359.359 5.28369 360.303 5.31141 361.569 5.3724C362.835 5.43339 363.779 5.46111 364.406 5.46111C365.033 5.46111 365.96 5.43339 367.182 5.3724C368.409 5.31141 369.33 5.28369 369.958 5.28369C370.546 5.28369 370.84 5.50546 370.84 5.94901C370.84 8.11128 370.724 11.3547 370.491 15.6792C370.257 20.0038 370.141 23.2472 370.141 25.4094H370.146Z" fill="#091638"/>
<path d="M468.189 6.21513C468.189 8.52155 468.094 11.9812 467.9 16.5996C467.706 21.218 467.611 24.6887 467.611 27.0173V46.9989C467.611 47.5422 467.317 47.8194 466.729 47.8194C466.24 47.8194 465.507 47.8416 464.53 47.8804C463.548 47.9192 462.815 47.9414 462.332 47.9414C461.804 47.9414 461.016 47.9026 459.961 47.8194C458.906 47.7363 458.118 47.6975 457.591 47.6975C457.224 47.6975 456.791 47.3648 456.286 46.6995C454.831 44.7368 451.55 40.3901 446.448 33.6593C445.049 31.7798 442.929 29.0077 440.075 25.354C439.992 25.232 439.842 25.1101 439.62 24.9881C439.459 25.1322 439.376 25.354 439.376 25.6534C439.376 27.9986 439.442 31.5137 439.575 36.2042C439.709 40.8946 439.775 44.4097 439.775 46.7549C439.775 47.4646 439.503 47.8139 438.954 47.8139H428.45C427.861 47.8139 427.567 47.5034 427.567 46.8714C427.567 44.6869 427.673 41.3936 427.884 36.9859C428.095 32.5782 428.2 29.2738 428.2 27.0727C428.2 24.7497 428.106 21.2734 427.911 16.6439C427.717 12.0145 427.623 8.54927 427.623 6.24285C427.623 5.79931 428.017 5.57754 428.805 5.57754C429.977 5.57754 431.426 5.49437 433.147 5.33359C433.552 5.29478 434.351 5.16172 435.545 4.93994C436.555 4.75698 437.355 4.66827 437.943 4.66827C438.188 4.66827 438.56 5.01202 439.065 5.69951L450.39 21.1958C451.401 22.5929 452.933 24.6332 454.976 27.3222C455.481 27.9487 455.92 28.2647 456.28 28.2647C456.541 28.2647 456.675 27.4775 456.675 25.8973C456.675 23.7739 456.558 20.5804 456.325 16.3168C456.092 12.0533 455.975 8.84866 455.975 6.70303C455.975 5.95455 456.186 5.58308 456.614 5.58308C457.829 5.58308 459.661 5.53318 462.11 5.43339C464.558 5.33359 466.39 5.28369 467.606 5.28369C467.989 5.28369 468.183 5.59971 468.183 6.22622L468.189 6.21513Z" fill="#091638"/>
<path d="M417.563 48.7841H381.955C379.779 48.7841 378.374 46.328 379.357 44.26L397.333 6.42582C398.415 4.14158 401.469 4.15821 402.54 6.448L420.172 44.2822C421.138 46.3558 419.728 48.7897 417.563 48.7897V48.7841Z" fill="#FAE053"/>
<path d="M513.796 48.7841H478.187C476.011 48.7841 474.606 46.328 475.589 44.26L493.565 6.42582C494.648 4.14158 497.701 4.15821 498.773 6.448L516.405 44.2822C517.371 46.3558 515.961 48.7897 513.796 48.7897V48.7841Z" fill="#E65C42"/>
</svg>
